<svg id="svg2" xmlns="http://www.w3.org/2000/svg" viewBox="0 0 494.51 258.22"><defs><style>.cls-1{fill:#07bacc;fill-rule:evenodd;}.cls-2{fill:#fff;}.cls-3{fill:#0abccc;}</style></defs><g id="g10"><g id="g12"><path id="path14" class="cls-1" d="M289.17,60.48a76.36,76.36,0,0,1-21.6,6.87A104.62,104.62,0,0,1,246,68.68a163.15,163.15,0,0,1-20.4-2.13q-9.73-1.6-17.87-3.33Q192,60,180,58.48a132.61,132.61,0,0,0-21.4-1.19,70.56,70.56,0,0,0-17.73,2.79,79.81,79.81,0,0,0-16.67,7.27,63.69,63.69,0,0,1,16.07-5.2A100.59,100.59,0,0,1,158,60.48a156,156,0,0,1,17.67.74q8.67.87,16.13,2.2T204.91,66q8.26,1.86,18.73,3.4a159.85,159.85,0,0,0,22,1.73,103,103,0,0,0,22.73-2.26,65.21,65.21,0,0,0,20.8-8.41M108.51,56.42c2.53-.13,5.08-.34,7.66-.6a35.87,35.87,0,0,0,7.34-1.4A16.56,16.56,0,0,0,129.7,51a30.84,30.84,0,0,0,5.21-6.8,81.43,81.43,0,0,0,4.6-8.87q2.13-4.66,3.66-8.8t2.27-6.47q.87-2.92,1.93-5.73a16.26,16.26,0,0,1,3.2-5.2,19,19,0,0,1,6.53-4.6q2.4-1.06,8.67-1.13T180.7,4q8.75.67,18.54,2t19.13,3q9.4,1.73,17,3.8-6.6-2.33-15.46-4.6t-18.54-4q-9.66-1.8-18.6-2.93C176.82.51,171.57.1,167,0s-7.87.27-10,1.06q-6,2.47-8.87,5.6a17.73,17.73,0,0,0-3.8,6.27q-1,3.2-1.53,5.73-.74,2.87-2.27,7.21T137,34.82a92.33,92.33,0,0,1-4.27,8.4,25,25,0,0,1-4.19,5.67,26.7,26.7,0,0,1-8.94,5,64.68,64.68,0,0,1-11.06,2.53M323.24,12.48a49.1,49.1,0,0,0-15.8,2.67,124,124,0,0,0-16.53,7.07q-8.34,4.32-16.21,8.8t-14.53,7.8A42.25,42.25,0,0,1,248.37,43a38.77,38.77,0,0,1-15.53-1.4A96,96,0,0,1,216.37,35q-8.26-4.2-15.86-8.8T186.7,18a43.25,43.25,0,0,0-10-4.54A68.08,68.08,0,0,1,192,18q7.59,3.19,15.06,7.07t14.41,7.46A89.94,89.94,0,0,0,235,38a31.19,31.19,0,0,0,12.4,1.27,33,33,0,0,0,10.4-4.07q5.93-3.34,13.2-7.87t15.6-8.87a100.07,100.07,0,0,1,17.67-7.06,61.75,61.75,0,0,1,19.26-2.34,122.28,122.28,0,0,1,27.74,5,227.21,227.21,0,0,1,29.06,10.81q-9-3.13-19-5.87t-19.8-4.54a129.77,129.77,0,0,0-18.33-2" transform="translate(0.01 0)"/><path id="path16" class="cls-2" d="M9.31,169.57,0,160.26V97.43l9.32-9.29h22.1l9.31,9.29v14H29.08V99.76H11.64V158H29.08V146.3H40.72v14l-9.31,9.31Zm52.36,0-9.32-9.31V97.43l9.32-9.29h22.1l9.31,9.29v62.83l-9.31,9.31ZM64,158H81.44V99.76H64Z" transform="translate(0.01 0)"/><path id="path18" class="cls-2" d="M104.71,169.57V88.14h11.65l23.27,53.52V88.14h11.62v81.43H139.63l-23.27-53.52v53.52Z" transform="translate(0.01 0)"/><path id="path20" class="cls-2" d="M162.89,169.57V88.14h40.73V99.76H174.54V123H192v11.65H174.54v34.89Z" transform="translate(0.01 0)"/><path id="path22" class="cls-2" d="M215.25,169.57H226.9V88.14H215.25Z" transform="translate(0.01 0)"/><path id="path24" class="cls-2" d="M238.52,169.57V88.14h31.42l9.31,9.29v62.83l-9.31,9.31ZM250.17,158H267.6V99.76H250.17Z" transform="translate(0.01 0)"/><path id="path26" class="cls-2" d="M290.88,169.57V88.14h40.73V99.76H302.53V123H320v11.65H302.53V158h29.08v11.62Z" transform="translate(0.01 0)"/><path id="path28" class="cls-2" d="M343.24,169.57V88.14h11.65l23.27,53.52V88.14h11.62v81.43H378.16l-23.27-53.52v53.52Z" transform="translate(0.01 0)"/><path id="path30" class="cls-2" d="M410.73,169.57l-9.31-9.31V97.43l9.31-9.29h22.1l9.32,9.29v14H430.5V99.76H413.06V158H430.5V146.3h11.65v14l-9.32,9.31Z" transform="translate(0.01 0)"/><path id="path32" class="cls-2" d="M453.77,169.57V88.14H494.5V99.76H465.42V123h17.43v11.65H465.42V158H494.5v11.62Z" transform="translate(0.01 0)"/><path id="path34" class="cls-3" d="M179,231.3v3a48.14,48.14,0,0,1-9.65,8.54c-3.33,2.2-5.95,3.29-7.85,3.29a4.11,4.11,0,0,1-3.75-2.37,13.66,13.66,0,0,1-1.34-6.67q0-4.31,4-11.33a92.39,92.39,0,0,1,11.12-15.06,115.84,115.84,0,0,0-10.33,9.62Q156,225.73,149.37,234l-.89,1.1q-7.09,8.77-8.31,8.77c-.45,0-.92-.72-1.42-2.16a13.6,13.6,0,0,1-.73-4.38q0-2.79,7.17-13.21a122.62,122.62,0,0,0,11.18-19.56,59,59,0,0,0-9.83,9,143.46,143.46,0,0,0-11,14.56c-1,1.46-2.29,3.4-3.85,5.82q-5.13,7.83-6.69,7.83c-.71,0-1.41-.69-2.11-2.08a9.92,9.92,0,0,1-1-4.44q0-2,4-7.56,2.46-3.42,3.92-5.65a131.47,131.47,0,0,0,7-11.81q2.56-5.07,2.56-6.88a.79.79,0,0,0-.31-.6,1.05,1.05,0,0,0-.73-.29,8,8,0,0,0-2.52,1q-1.92,1-5.5,3c-.6.35-1.42.83-2.46,1.46-2.87,1.7-4.68,2.54-5.42,2.54a1.48,1.48,0,0,1-1-.31,1.64,1.64,0,0,1-.31-1.11,17.94,17.94,0,0,1,.75-4.79,11.86,11.86,0,0,1,4.81-7.15,6.91,6.91,0,0,1,2.38-1.43.33.33,0,0,1,.23.12.41.41,0,0,1,.12.27,1.22,1.22,0,0,1-.29.5,6.27,6.27,0,0,1-.67.73L126,199.59a88.74,88.74,0,0,1,9-4.12,19.51,19.51,0,0,1,5.58-1.58c1.05,0,2,.78,2.88,2.35a9.24,9.24,0,0,1,1.33,4.5,21.12,21.12,0,0,1-2.12,8,72.17,72.17,0,0,1-6,10.6A117.4,117.4,0,0,1,151.23,203q7.1-6.5,9.44-6.5.92,0,2.16,1.56a5.36,5.36,0,0,1,1.27,3.48q0,1.91-2.73,7.29a147.4,147.4,0,0,1-7.58,13,239.76,239.76,0,0,1,17-17.33q7.4-6.66,9.4-6.67c.67,0,1.4.74,2.18,2.21a8.09,8.09,0,0,1,1.19,3.71q0,1.39-3.41,5.42c-1.54,1.83-2.77,3.36-3.71,4.58A82.88,82.88,0,0,0,167.73,227q-2.92,5.78-2.92,9.73a4.17,4.17,0,0,0,.36,2.1,1.6,1.6,0,0,0,1.39.52q1.66,0,5.19-2.23A44.51,44.51,0,0,0,179,231.3Zm5.4.13v.33a5.35,5.35,0,0,0,1.19,3.65,4.13,4.13,0,0,0,3.23,1.33,13.17,13.17,0,0,0,6.38-2.21,42.37,42.37,0,0,0,7.89-6.29v3a50.87,50.87,0,0,1-9.52,8.65,14.82,14.82,0,0,1-8,2.7,7,7,0,0,1-5.69-2.35q-2-2.37-2-6.79a14,14,0,0,1,1.54-6.34,21.31,21.31,0,0,1,4.5-5.93,23.2,23.2,0,0,1,6.23-4.32,15.23,15.23,0,0,1,6.41-1.47,7.22,7.22,0,0,1,3.65.72,2.49,2.49,0,0,1,1.21,2.28q0,3.44-5,7.37A30.54,30.54,0,0,1,184.36,231.43Zm.28-2.92a46.09,46.09,0,0,0,8.45-4.77q3.09-2.31,3.09-3.88a.93.93,0,0,0-.13-.56.36.36,0,0,0-.33-.19q-2.13,0-5.54,2.69A20.62,20.62,0,0,0,184.64,228.51Z" transform="translate(0.01 0)"/><path id="path36" class="cls-3" d="M217.41,231.49q-5,5.14-7.8,7.54t-3.83,2.4c-1,0-1.92-1.09-2.83-3.25a19.57,19.57,0,0,1-1.38-7.65,8.06,8.06,0,0,1,1.52-4.58,18,18,0,0,1,4.69-4.44,37.48,37.48,0,0,1,6.52-3.81,13.37,13.37,0,0,1,5-1.38,3.49,3.49,0,0,1,1.69.38,3.71,3.71,0,0,1,1.31,1.19q5.48-9.39,8.5-13.82c2-2.94,3.36-4.41,4-4.41a2.1,2.1,0,0,1,1.61.93,3.31,3.31,0,0,1,.75,2.15q0,2.63-8.88,15.31l-1.06,1.46a28.67,28.67,0,0,0-3.48,7.58,26.32,26.32,0,0,0-1.46,7.52,1.7,1.7,0,0,0,.42,1.13,1.22,1.22,0,0,0,.94.5q1.44,0,7.6-5.44c1.24-1.11,2.21-2,2.92-2.56v2.92l-.42.5Q223.57,243,220,243.05a2.6,2.6,0,0,1-2.42-1.21,8.72,8.72,0,0,1-.71-4.16c0-1,0-2.07.13-3.09s.23-2.06.42-3.1Zm3.08-9.33q-8.07,3-11.08,5.6a8.25,8.25,0,0,0-3,6.4,2.17,2.17,0,0,0,.1.81.38.38,0,0,0,.38.21q.88,0,3.18-1.71t6.5-5.56l.27-.23a12.32,12.32,0,0,0,3.65-5.52Z" transform="translate(0.01 0)"/><path id="path38" class="cls-3" d="M236.65,229a4,4,0,0,1,.9-1.36,15.58,15.58,0,0,1,2-2,8.05,8.05,0,0,1,3.14-1.37,18.19,18.19,0,0,1,4.63-.56,16.9,16.9,0,0,1,3.23.35,18.26,18.26,0,0,0,2,.35c.08,0,.42-.05,1-.16a9.24,9.24,0,0,1,1.65-.17,11.34,11.34,0,0,1,2.68.29c.8.2,1.19.43,1.19.69s-.25.54-.75.94-1.68,1.19-3.54,2.35a9.41,9.41,0,0,1-3.1,1.19,24,24,0,0,1-4.73.37c-.58,0-1.37,0-2.4-.06s-1.79-.06-2.27-.06h-2.79a9.12,9.12,0,0,1-2.21-.19c-.46-.12-.7-.32-.73-.58Z" transform="translate(0.01 0)"/><path id="path40" class="cls-3" d="M269.07,233.05c1.25.14,2.4.25,3.46.31s2.06.09,3,.09a53.39,53.39,0,0,0,8.58-.71,51.87,51.87,0,0,0,8.36-2.08,17.83,17.83,0,0,0,4.16-1.86,2.35,2.35,0,0,0,1.21-1.85c0-1-.93-1.88-2.79-2.71A74.3,74.3,0,0,0,284,221q-7.59-1.78-10-3.38a4.88,4.88,0,0,1-2.42-4.27,20.79,20.79,0,0,1,1-6.58,11.28,11.28,0,0,1,2.79-4.69c2.13-2,5.65-3.75,10.59-5.27a50.38,50.38,0,0,1,14.79-2.27,26.8,26.8,0,0,1,7.71.92c2,.6,3,1.35,3,2.27a9.75,9.75,0,0,1-.91,4.33,6.28,6.28,0,0,1-2.56,2.79c-.33.19-1.28.63-2.86,1.34s-3,1.36-4.12,2a17,17,0,0,0-1.67,1,3,3,0,0,1-1.29.62.89.89,0,0,1-.63-.21.85.85,0,0,1-.23-.62q0-1,4.25-4.06l.75-.57c-.19,0-.57,0-1.12,0s-1,0-1.4,0A39.84,39.84,0,0,0,284.74,207c-4.43,1.75-6.65,3.45-6.65,5.08,0,1.08,2.18,2.24,6.55,3.46,2.48.68,4.52,1.28,6.1,1.79a30.44,30.44,0,0,1,9.83,4.92c2.43,2,3.65,3.88,3.65,5.81a11.65,11.65,0,0,1-2,5.6,13.44,13.44,0,0,1-4.5,4.82,35.81,35.81,0,0,1-10.4,3.71A62.26,62.26,0,0,1,274,243.57a24.68,24.68,0,0,1-8.84-1.35c-2.3-.9-3.45-2-3.45-3.25a9.25,9.25,0,0,1,1.08-2.77,13.61,13.61,0,0,1,2.1-3.27,5.75,5.75,0,0,1,2.5-1.32,19.71,19.71,0,0,1,4.27-.7,5.13,5.13,0,0,1-1.06,1.23,6.64,6.64,0,0,1-1.48.91Z" transform="translate(0.01 0)"/><path id="path42" class="cls-3" d="M311.77,241.89Q308,251.18,306,254.7c-1.29,2.34-2.34,3.52-3.17,3.52a1.33,1.33,0,0,1-1.16-.73,3.77,3.77,0,0,1-.46-2,21.52,21.52,0,0,1,1.31-7.42,29,29,0,0,1,4.13-7.37.71.71,0,0,0,.1-.13,35.86,35.86,0,0,0,4-6.43L316,223.89q-1.43,1.67-3.25,3.56c-1.22,1.26-2.83,2.83-4.81,4.71V229a89.2,89.2,0,0,0,10.79-12.86c1-1.41,1.76-2.44,2.25-3.1a14,14,0,0,1,3.27-3.31,5.6,5.6,0,0,1,3.17-1A3,3,0,0,1,329,209a1.11,1.11,0,0,1,.62,1q0,1.06-2.68,4.4a53.29,53.29,0,0,0-4.4,6.27l-3.62,6.21a47,47,0,0,1,7.73-6.21q3.83-2.44,5.56-2.44a2.35,2.35,0,0,1,1.85.67,3,3,0,0,1,.61,2.06,14.57,14.57,0,0,1-2.59,7.42,40.34,40.34,0,0,1-7.35,8.47,2.22,2.22,0,0,0,.33.09,8,8,0,0,0,1.29.25,9.72,9.72,0,0,0,5.19-1.88,62.19,62.19,0,0,0,8.33-7.31l.07,3.29a66.38,66.38,0,0,1-10.21,9.11q-4.6,3.17-7.58,3.16a11.48,11.48,0,0,1-3.09-.41,7.92,7.92,0,0,1-2.52-1.17l-1.25.23a7.53,7.53,0,0,1-1.25.1,5.07,5.07,0,0,1-1.06-.12A10.5,10.5,0,0,1,311.77,241.89Zm3.77-6.11,1.44-.19a12.54,12.54,0,0,1,1.46-.14,6.65,6.65,0,0,1,1,.08c.33.06.71.14,1.14.25a63.56,63.56,0,0,0,5.13-6.25,7.38,7.38,0,0,0,1.54-3.42,2,2,0,0,0-.11-.75.41.41,0,0,0-.35-.27c-1.14,0-2.79,1-5,3a37.6,37.6,0,0,0-6.25,7.71Z" transform="translate(0.01 0)"/><path id="path44" class="cls-3" d="M354.33,232.2a79.89,79.89,0,0,1-7.39,7c-1.93,1.54-3.39,2.31-4.36,2.31s-2-1.13-3.39-3.39a12.38,12.38,0,0,1-2.06-6.34A9,9,0,0,1,338.9,227a24,24,0,0,1,4.91-5.27,33.57,33.57,0,0,1,5-3.46,41.5,41.5,0,0,1,5.92-2.71,38.58,38.58,0,0,1,4.29-1.39,13.22,13.22,0,0,1,2.84-.54,3,3,0,0,1,2.16,1.23,3.53,3.53,0,0,1,1.09,2.27.83.83,0,0,1-.25.58,4.62,4.62,0,0,1-1,.65l-1.23.72,1.16,2.4a3.32,3.32,0,0,1,.32.73,2.36,2.36,0,0,1,.08.56q0,.75-2.6,4.52T359,233.2a1.45,1.45,0,0,0,.52,1.21,2.24,2.24,0,0,0,1.44.41,7,7,0,0,0,3.58-1.43,54.51,54.51,0,0,0,6.15-5.21l.06,2.91a101.38,101.38,0,0,1-9.75,9.75Q358.31,243,356.4,243a3.41,3.41,0,0,1-2.63-1.17,4.14,4.14,0,0,1-1.06-2.91,28.27,28.27,0,0,1,1.58-6.59Zm5.44-11.79q-10.89,4.68-14.12,7.33t-3.21,5.85a2.51,2.51,0,0,0,.33,1.34,1,1,0,0,0,.83.52q1.66,0,6.42-4.29A83.1,83.1,0,0,0,359.77,220.41Z" transform="translate(0.01 0)"/></g></g></svg>