<?xml version="1.0" encoding="UTF-8" standalone="no"?>
<svg
   xmlns:dc="http://purl.org/dc/elements/1.1/"
   xmlns:cc="http://creativecommons.org/ns#"
   xmlns:rdf="http://www.w3.org/1999/02/22-rdf-syntax-ns#"
   xmlns:svg="http://www.w3.org/2000/svg"
   xmlns="http://www.w3.org/2000/svg"
   viewBox="0 0 494.66666 258.66666"
   height="258.66666"
   width="494.66666"
   xml:space="preserve"
   id="svg2"
   version="1.1"><metadata
     id="metadata8"><rdf:RDF><cc:Work
         rdf:about=""><dc:format>image/svg+xml</dc:format><dc:type
           rdf:resource="http://purl.org/dc/dcmitype/StillImage" /></cc:Work></rdf:RDF></metadata><defs
     id="defs6" /><g
     transform="matrix(1.3333333,0,0,-1.3333333,0,258.66667)"
     id="g10"><g
       transform="scale(0.1)"
       id="g12"><path
         id="path14"
         style="fill:#07bacc;fill-opacity:1;fill-rule:evenodd;stroke:none"
         d="m 2168.79,1486.37 c -53.01,-25.67 -106.99,-42.85 -161.99,-51.49 -54.69,-9.02 -108.68,-12.34 -162,-10 -53.35,2.31 -104.33,7.66 -153,15.98 -48.68,8.01 -93.36,16.33 -134.03,25 -78.63,16.02 -147.81,27.85 -207.5,35.51 -60,7.65 -113.47,10.66 -160.47,8.98 -47.34,-1.64 -91.68,-8.63 -133,-20.97 -41.33,-12.35 -83.011,-30.51 -124.999,-54.5 37.34,17.97 77.499,30.98 120.499,38.99 42.97,8.01 87.15,12.15 132.5,12.5 45,0.66 89.15,-1.17 132.5,-5.51 43.32,-4.34 83.64,-9.84 120.98,-16.48 37.66,-6.68 70.51,-13.17 98.52,-19.5 41.32,-9.33 88.16,-17.85 140.5,-25.5 52.66,-8.01 107.66,-12.35 165,-13.01 57.66,-0.67 114.5,5 170.47,16.99 55.67,11.99 107.7,33.01 156.02,63.01 m -1355.001,30.51 c 18.981,0.97 38.16,2.5 57.5,4.49 19.332,1.68 37.66,5.15 55,10.51 17.66,5.31 33.16,13.82 46.481,25.5 13.679,12.97 26.679,30 39.03,50.98 12.65,21.02 24.14,43.16 34.49,66.52 10.66,23.32 19.84,45.32 27.5,65.98 7.66,20.35 13.32,36.52 16.99,48.52 4.34,14.64 9.18,28.98 14.49,43 5,13.64 13.01,26.64 24.03,38.99 10.66,12.65 26.99,24.18 48.98,34.49 11.99,5.35 33.67,8.16 65,8.52 31.02,0.66 68.36,-0.67 111.99,-4.03 43.68,-3.32 90,-8.32 139.03,-15 48.67,-6.33 96.48,-13.83 143.47,-22.5 47.03,-8.63 89.53,-18.16 127.5,-28.47 -32.97,11.64 -71.64,23.16 -115.97,34.49 -44.34,11.01 -90.67,21.01 -139.03,30 -48.32,8.98 -94.8,16.33 -139.49,21.99 -44.65,5.35 -83.98,8.36 -118.01,9.02 -33.98,0.67 -58.98,-2.03 -75,-8 -30,-12.35 -52.15,-26.33 -66.48,-42 -13.99,-15.66 -23.52,-31.36 -28.52,-47.03 -5,-15.97 -8.82,-30.31 -11.48,-42.97 -3.67,-14.33 -9.34,-32.34 -16.99,-54.02 -8.01,-21.64 -17,-43.98 -27,-66.99 -10.35,-23.01 -21.01,-43.99 -32.03,-63.01 -10.969,-18.98 -21.481,-33.16 -31.481,-42.5 -18.32,-15.98 -40.668,-28.48 -66.988,-37.5 -26.68,-8.67 -54.34,-15 -83.012,-18.98 M 2424.3,1846.37 c -37.66,0.35 -77.19,-6.33 -118.52,-20 -40.98,-13.99 -82.34,-31.68 -123.98,-53.01 -41.68,-21.64 -82.19,-43.67 -121.53,-65.98 -38.98,-22.34 -75.31,-41.83 -108.98,-58.51 -33.67,-16.68 -63.17,-26.99 -88.52,-31.02 -36.64,-4.65 -75.47,-1.13 -116.48,10.51 -41.02,11.99 -82.15,28.52 -123.52,49.49 -41.32,21.02 -80.97,43.01 -118.98,66.02 -38.01,22.65 -72.5,43.01 -103.52,61.01 -30.66,17.66 -55.66,28.99 -75,33.99 38.68,-6.33 77.03,-17.5 115,-33.52 38.01,-15.97 75.67,-33.63 113.01,-52.97 36.99,-19.68 73.01,-38.36 108.01,-56.01 35.35,-17.66 69.18,-31.49 101.48,-41.49 32.7,-9.68 63.68,-12.85 93.01,-9.53 22.34,3.67 48.36,13.87 78.01,30.51 29.65,16.68 62.66,36.33 98.98,59.02 36.37,22.66 75.35,44.81 117.03,66.49 42,21.68 86.14,39.33 132.5,53.01 46.33,13.32 94.5,19.14 144.5,17.5 66.32,-3.68 135.66,-16.18 208,-37.5 72.66,-21.33 145.32,-48.36 217.97,-81.02 -45,15.66 -92.5,30.35 -142.5,44.02 -49.65,13.64 -99.14,25 -148.47,33.99 -49.03,8.67 -94.85,13.67 -137.5,15" /><path
         id="path16"
         style="fill:#000000;fill-opacity:1;fill-rule:nonzero;stroke:none"
         d="M 69.8008,668.199 -0.0390625,738.051 V 1209.3 L 69.8008,1278.98 H 235.59 l 69.84,-69.68 v -104.85 h -87.34 v 87.35 H 87.3008 V 755.391 H 218.09 v 87.339 h 87.34 V 738.051 l -69.84,-69.852 z m 392.6992,0 -69.84,69.852 V 1209.3 l 69.84,69.68 h 165.781 l 69.84,-69.68 V 738.051 l -69.84,-69.852 z m 17.5,87.192 h 130.781 v 436.41 H 480 Z" /><path
         id="path18"
         style="fill:#000000;fill-opacity:1;fill-rule:nonzero;stroke:none"
         d="m 785.352,668.199 v 610.781 h 87.347 L 1047.23,877.582 v 401.398 h 87.18 V 668.199 h -87.18 L 872.699,1069.61 V 668.199 Z" /><path
         id="path20"
         style="fill:#000000;fill-opacity:1;fill-rule:nonzero;stroke:none"
         d="m 1221.68,668.199 v 610.781 h 305.47 V 1191.8 H 1309.02 V 1017.27 H 1439.8 V 929.922 H 1309.02 V 668.199 Z" /><path
         id="path22"
         style="fill:#000000;fill-opacity:1;fill-rule:nonzero;stroke:none"
         d="m 1614.38,668.199 h 87.3398 V 1278.98 H 1614.38 Z" /><path
         id="path24"
         style="fill:#000000;fill-opacity:1;fill-rule:nonzero;stroke:none"
         d="m 1788.91,668.199 v 610.781 h 235.62 l 69.85,-69.68 V 738.051 l -69.85,-69.852 z m 87.34,87.192 h 130.781 v 436.41 H 1876.25 Z" /><path
         id="path26"
         style="fill:#000000;fill-opacity:1;fill-rule:nonzero;stroke:none"
         d="m 2181.6,668.199 v 610.781 h 305.47 v -87.18 h -218.12 v -174.53 h 130.78 V 929.922 H 2268.95 V 755.391 h 218.12 v -87.192 z" /><path
         id="path28"
         style="fill:#000000;fill-opacity:1;fill-rule:nonzero;stroke:none"
         d="m 2574.3,668.199 v 610.781 h 87.34 l 174.53,-401.398 v 401.398 h 87.19 V 668.199 h -87.19 L 2661.64,1069.61 V 668.199 Z" /><path
         id="path30"
         style="fill:#000000;fill-opacity:1;fill-rule:nonzero;stroke:none"
         d="m 3080.47,668.199 -69.85,69.852 V 1209.3 l 69.85,69.68 h 165.78 l 69.84,-69.68 v -104.85 h -87.34 v 87.35 H 3097.97 V 755.391 h 130.78 v 87.339 h 87.34 V 738.051 l -69.84,-69.852 z" /><path
         id="path32"
         style="fill:#000000;fill-opacity:1;fill-rule:nonzero;stroke:none"
         d="m 3403.28,668.199 v 610.781 h 305.47 v -87.18 h -218.13 v -174.53 h 130.79 V 929.922 H 3490.62 V 755.391 h 218.13 v -87.192 z" /><path
         id="path34"
         style="fill:#0abccc;fill-opacity:1;fill-rule:nonzero;stroke:none"
         d="m 1342.19,205.23 v -22.339 c -23.13,-26.25 -47.27,-47.621 -72.35,-64.063 -25,-16.449 -44.64,-24.6874 -58.9,-24.6874 -12.11,0 -21.49,5.9374 -28.13,17.8084 -6.68,11.801 -10,28.442 -10,50 0,21.571 10.04,49.891 30.16,85 20.08,35.082 47.89,72.742 83.44,112.973 -25.63,-20.942 -51.49,-45 -77.5,-72.192 -26.06,-27.109 -55.59,-61.21 -88.6,-102.339 l -6.72,-8.282 c -35.43,-43.871 -56.21,-65.781 -62.34,-65.781 -3.36,0 -6.87,5.434 -10.63,16.25 -3.67,10.82 -5.46,21.762 -5.46,32.813 0,13.949 17.89,46.949 53.75,99.058 35.82,52.192 63.79,101.102 83.9,146.723 -23.86,-16.793 -48.43,-39.371 -73.75,-67.813 -25.23,-28.437 -52.81,-64.839 -82.81,-109.218 -7.5,-10.942 -17.148,-25.469 -28.91,-43.59 -25.621,-39.18 -42.34,-58.75 -50.149,-58.75 -5.312,0 -10.589,5.187 -15.781,15.621 -5.238,10.508 -7.82,21.598 -7.82,33.277 0,9.891 10.082,28.789 30.32,56.723 12.262,17.066 22.07,31.168 29.371,42.348 22.071,33.82 39.529,63.351 52.339,88.589 12.82,25.313 19.22,42.5 19.22,51.563 0,1.637 -0.78,3.168 -2.34,4.527 -1.56,1.449 -3.4,2.192 -5.47,2.192 -2.93,0 -9.22,-2.461 -18.91,-7.34 -9.6,-4.922 -23.35,-12.5 -41.241,-22.821 -4.5,-2.609 -10.629,-6.25 -18.438,-10.929 -21.562,-12.742 -35.121,-19.071 -40.632,-19.071 -3.668,0 -6.25,0.79 -7.809,2.348 -1.559,1.641 -2.34,4.41 -2.34,8.281 0,10.621 1.871,22.582 5.621,35.942 3.828,13.429 8.438,23.828 13.75,31.25 5.508,7.808 12.969,15.23 22.348,22.34 9.449,7.187 15.391,10.781 17.812,10.781 0.618,0 1.168,-0.313 1.719,-0.942 0.621,-0.621 0.93,-1.32 0.93,-2.031 0,-0.621 -0.738,-1.871 -2.18,-3.75 -1.371,-1.789 -3.051,-3.59 -5,-5.469 l -17.5,-17.179 c 24.57,12.808 47.07,23.121 67.5,30.929 20.39,7.899 34.37,11.879 41.87,11.879 7.81,0 15,-5.898 21.56,-17.66 6.64,-11.789 10,-23.039 10,-33.75 0,-15.539 -5.31,-35.429 -15.93,-59.679 -10.63,-24.18 -25.55,-50.711 -44.69,-79.54 36.95,49.258 73.2,90.079 108.75,122.5 35.51,32.5 59.1,48.75 70.78,48.75 4.57,0 10,-3.902 16.25,-11.71 6.33,-7.821 9.53,-16.532 9.53,-26.098 0,-9.492 -6.83,-27.731 -20.47,-54.692 -13.55,-26.992 -32.5,-59.531 -56.87,-97.652 48.12,53.442 90.62,96.762 127.5,130 36.95,33.32 60.47,50 70.47,50 5.07,0 10.54,-5.547 16.4,-16.558 5.94,-10.942 8.91,-20.239 8.91,-27.821 0,-6.988 -8.56,-20.539 -25.63,-40.621 -11.48,-13.75 -20.74,-25.238 -27.81,-34.379 -28.98,-37.179 -50.74,-70.23 -65.31,-99.058 -14.61,-28.871 -21.88,-53.2 -21.88,-72.969 0,-7.813 0.86,-13.082 2.66,-15.781 1.87,-2.621 5.35,-3.911 10.47,-3.911 8.32,0 21.29,5.551 38.9,16.719 17.7,11.141 35.71,25.551 54.07,43.281 z m 40.54,-0.929 v -2.5 c 0,-11.492 2.97,-20.59 8.91,-27.352 6.02,-6.679 14.1,-10 24.22,-10 13.12,0 29.06,5.512 47.81,16.571 18.75,11.128 38.48,26.871 59.22,47.179 v -22.5 c -26.68,-29.679 -50.47,-51.32 -71.41,-64.84 -20.93,-13.519 -40.89,-20.308 -59.84,-20.308 -18.55,0 -32.77,5.898 -42.66,17.648 -9.88,11.879 -14.84,28.832 -14.84,50.942 0,16.25 3.87,32.07 11.56,47.5 7.62,15.39 18.83,30.238 33.75,44.531 15.08,14.258 30.67,25.039 46.72,32.348 16.02,7.378 32.07,11.089 48.13,11.089 12.26,0 21.4,-1.839 27.34,-5.468 6.02,-3.672 9.06,-9.34 9.06,-17.032 0,-17.187 -12.42,-35.629 -37.18,-55.308 -24.69,-19.692 -54.97,-33.871 -90.79,-42.5 z m 2.04,21.871 c 26.95,12.269 48.12,24.219 63.43,35.777 15.39,11.571 23.13,21.25 23.13,29.071 0,1.949 -0.31,3.359 -0.94,4.21 -0.55,0.942 -1.37,1.411 -2.5,1.411 -10.62,0 -24.49,-6.719 -41.56,-20.161 -17.11,-13.429 -30.94,-30.23 -41.56,-50.308 z" /><path
         id="path36"
         style="fill:#0abccc;fill-opacity:1;fill-rule:nonzero;stroke:none"
         d="m 1630.55,203.828 c -24.81,-25.738 -44.3,-44.609 -58.44,-56.558 -14.06,-12 -23.67,-17.969 -28.75,-17.969 -7.31,0 -14.38,8.121 -21.25,24.371 -6.88,16.328 -10.31,35.469 -10.31,57.348 0,11.75 3.82,23.199 11.4,34.371 7.58,11.129 19.3,22.23 35.16,33.281 17.07,12.187 33.36,21.719 48.91,28.598 15.62,6.871 28.16,10.308 37.65,10.308 5,0 9.22,-0.937 12.66,-2.808 3.51,-1.801 6.8,-4.77 9.84,-8.911 27.38,46.95 48.63,81.481 63.75,103.59 15.08,22.071 25.16,33.129 30.16,33.129 4.26,0 8.28,-2.348 12.03,-7.027 3.75,-4.61 5.62,-9.961 5.62,-16.102 0,-13.121 -22.18,-51.398 -66.56,-114.84 l -7.97,-10.937 c -10.11,-14.801 -18.83,-33.75 -26.09,-56.871 -7.31,-23.051 -10.94,-41.84 -10.94,-56.41 0,-3.121 1.02,-5.942 3.13,-8.442 2.07,-2.5 4.41,-3.75 7.03,-3.75 7.19,0 26.17,13.602 57.03,40.781 9.26,8.321 16.56,14.731 21.87,19.219 v -21.871 l -3.12,-3.75 c -51.06,-56.988 -85.55,-85.469 -103.44,-85.469 -8.44,0 -14.49,3.051 -18.12,9.063 -3.56,5.937 -5.32,16.328 -5.32,31.25 0,7.808 0.32,15.508 0.94,23.129 0.7,7.687 1.76,15.469 3.13,23.277 z m 23.12,70 c -40.31,-14.808 -68.05,-28.828 -83.12,-42.027 -15,-13.25 -22.5,-29.223 -22.5,-47.973 0,-2.93 0.23,-4.957 0.78,-6.098 0.51,-1.05 1.44,-1.558 2.81,-1.558 4.45,0 12.42,4.258 23.91,12.808 11.44,8.52 27.69,22.43 48.75,41.719 0.62,0.512 1.29,1.102 2.03,1.723 13.12,11.637 22.22,25.469 27.34,41.406 z" /><path
         id="path38"
         style="fill:#0abccc;fill-opacity:1;fill-rule:nonzero;stroke:none"
         d="m 1774.88,222.73 c 0,1.329 2.23,4.731 6.72,10.161 4.57,5.507 9.69,10.55 15.31,15.16 5,4.14 12.86,7.57 23.6,10.308 10.82,2.813 22.38,4.219 34.69,4.219 7.38,0 15.46,-0.898 24.21,-2.656 8.83,-1.801 13.95,-2.652 15.32,-2.652 0.62,0 3.16,0.39 7.65,1.25 4.46,0.82 8.6,1.25 12.35,1.25 7.57,0 14.29,-0.75 20.15,-2.192 5.94,-1.488 8.91,-3.199 8.91,-5.156 0,-1.684 -1.88,-4.024 -5.63,-7.031 -3.75,-3.051 -12.61,-8.911 -26.56,-17.661 -6.48,-4.058 -14.22,-7.031 -23.28,-8.902 -8.98,-1.879 -20.78,-2.808 -35.47,-2.808 -4.3,0 -10.27,0.152 -17.97,0.46 -7.73,0.321 -13.4,0.469 -17.03,0.469 h -20.94 c -7.5,0 -13.04,0.473 -16.56,1.41 -3.44,0.942 -5.27,2.379 -5.47,4.371 z" /><path
         id="path40"
         style="fill:#0abccc;fill-opacity:1;fill-rule:nonzero;stroke:none"
         d="m 2018.05,192.109 c 9.37,-1.058 18,-1.839 25.93,-2.339 8.01,-0.43 15.47,-0.629 22.35,-0.629 21.25,0 42.69,1.757 64.37,5.308 21.64,3.52 42.54,8.75 62.66,15.629 14.88,5.082 25.31,9.723 31.25,13.902 6.01,4.258 9.06,8.911 9.06,13.911 0,7.269 -6.99,14.058 -20.94,20.308 -13.98,6.332 -41.68,14.531 -83.12,24.531 -37.93,8.95 -62.93,17.391 -75,25.321 -12.11,8 -18.13,18.668 -18.13,32.027 0,18.012 2.43,34.453 7.35,49.371 5,14.891 11.95,26.602 20.94,35.16 15.93,15 42.38,28.161 79.37,39.532 37.07,11.328 74.06,17.031 110.94,17.031 23.75,0 43.01,-2.301 57.81,-6.871 14.88,-4.5 22.34,-10.16 22.34,-17.031 0,-12.309 -2.3,-23.129 -6.87,-32.5 -4.61,-9.379 -11.02,-16.372 -19.22,-20.942 -2.42,-1.367 -9.53,-4.687 -21.41,-10 -11.87,-5.238 -22.18,-10.238 -30.93,-15 -3.68,-1.988 -7.82,-4.609 -12.5,-7.808 -4.61,-3.129 -7.82,-4.692 -9.69,-4.692 -1.99,0 -3.56,0.512 -4.69,1.563 -1.17,1.129 -1.72,2.699 -1.72,4.687 0,5 10.63,15.152 31.88,30.473 l 5.62,4.219 c -1.48,0 -4.29,0.031 -8.43,0.152 -4.18,0.199 -7.66,0.308 -10.47,0.308 -40.94,0 -78.05,-6.64 -111.25,-19.839 -33.25,-13.121 -49.85,-25.86 -49.85,-38.121 0,-8.129 16.33,-16.801 49.07,-25.942 18.63,-5.117 33.9,-9.609 45.78,-13.437 31.01,-10 55.62,-22.301 73.75,-36.871 18.2,-14.61 27.34,-29.141 27.34,-43.598 0,-11.481 -4.92,-25.473 -14.69,-42.031 -9.8,-16.481 -21.05,-28.512 -33.75,-36.09 -19.49,-11.492 -45.47,-20.75 -77.97,-27.821 -32.42,-7.179 -65.93,-10.781 -100.62,-10.781 -26.8,0 -48.87,3.403 -66.25,10.16 -17.27,6.762 -25.94,14.879 -25.94,24.371 0,3.008 2.74,9.93 8.13,20.79 5.43,10.929 10.66,19.101 15.78,24.531 3.51,3.828 9.76,7.109 18.75,9.84 9.06,2.699 19.72,4.449 32.03,5.308 -2.11,-3.429 -4.77,-6.519 -7.97,-9.219 -3.12,-2.609 -6.84,-4.921 -11.09,-6.871 z" /><path
         id="path42"
         style="fill:#0abccc;fill-opacity:1;fill-rule:nonzero;stroke:none"
         d="M 2338.28,125.859 C 2319.3,79.4102 2305,47.3789 2295.31,29.7695 2285.62,12.1914 2277.73,3.35938 2271.56,3.35938 c -3.63,0 -6.56,1.83984 -8.75,5.46875 -2.26,3.67187 -3.43,8.59377 -3.43,14.84377 0,19.1797 3.28,37.7383 9.84,55.6289 6.48,17.9297 16.8,36.3592 30.94,55.3082 0.11,0.082 0.39,0.391 0.78,0.942 8.67,10.308 18.59,26.398 29.84,48.277 l 39.06,77.031 c -7.11,-8.359 -15.23,-17.269 -24.37,-26.718 -9.18,-9.493 -21.21,-21.25 -36.09,-35.313 v 23.902 c 23.2,21.571 50.19,53.68 80.93,96.411 7.58,10.629 13.21,18.359 16.88,23.281 8.63,11.449 16.79,19.726 24.53,24.848 7.69,5.191 15.62,7.808 23.75,7.808 4.88,0 8.83,-0.937 11.87,-2.808 3.13,-1.879 4.69,-4.34 4.69,-7.348 0,-5.313 -6.72,-16.332 -20.15,-32.973 -13.36,-16.679 -24.34,-32.34 -32.97,-47.027 l -27.19,-46.563 c 19.45,18.942 38.79,34.45 57.97,46.563 19.14,12.187 33.04,18.277 41.72,18.277 6.25,0 10.86,-1.679 13.9,-5 3.01,-3.238 4.53,-8.398 4.53,-15.469 0,-16.25 -6.48,-34.8 -19.37,-55.621 -12.81,-20.738 -31.21,-41.949 -55.16,-63.589 0.71,-0.239 1.57,-0.43 2.5,-0.629 5,-1.25 8.21,-1.871 9.69,-1.871 11.64,0 24.61,4.679 38.91,14.058 14.25,9.371 35.07,27.652 62.5,54.844 l 0.47,-24.692 c -28.05,-29.679 -53.56,-52.46 -76.57,-68.281 -23.04,-15.82 -41.99,-23.75 -56.87,-23.75 -8.13,0 -15.86,1.063 -23.13,3.129 -7.3,1.992 -13.59,4.922 -18.9,8.75 -3.05,-0.629 -6.18,-1.168 -9.38,-1.719 -3.12,-0.507 -6.25,-0.781 -9.37,-0.781 -2.5,0 -5.16,0.313 -7.97,0.942 -2.81,0.539 -5.78,1.32 -8.91,2.339 z m 28.28,45.782 c 2.19,0.308 5.78,0.781 10.78,1.41 5,0.699 8.64,1.09 10.94,1.09 2.27,0 4.69,-0.231 7.19,-0.621 2.5,-0.43 5.35,-1.059 8.59,-1.879 17.89,19.879 30.71,35.507 38.44,46.879 7.7,11.441 11.56,20 11.56,25.621 0,2.578 -0.27,4.449 -0.78,5.629 -0.55,1.25 -1.4,1.91 -2.66,2.031 -8.55,0 -20.93,-7.461 -37.18,-22.352 -16.25,-14.801 -31.88,-34.058 -46.88,-57.808 z" /><path
         id="path44"
         style="fill:#0abccc;fill-opacity:1;fill-rule:nonzero;stroke:none"
         d="m 2657.5,198.52 c -22.42,-23.559 -40.9,-41.18 -55.47,-52.821 -14.49,-11.558 -25.39,-17.34 -32.65,-17.34 -6.68,0 -15.16,8.481 -25.47,25.469 -10.32,17.07 -15.47,32.891 -15.47,47.5 0,10.621 4.45,22.582 13.28,35.942 8.75,13.32 21.01,26.48 36.87,39.531 11.76,9.758 24.38,18.429 37.82,25.929 13.43,7.579 28.2,14.379 44.37,20.321 11.25,4.371 21.95,7.847 32.19,10.469 10.19,2.691 17.26,4.058 21.25,4.058 5.51,0 10.94,-3.09 16.25,-9.219 5.39,-6.058 8.12,-11.718 8.12,-17.031 0,-1.68 -0.62,-3.129 -1.87,-4.379 -1.25,-1.25 -3.71,-2.89 -7.34,-4.84 l -9.22,-5.468 8.75,-17.969 c 1.13,-2.113 1.91,-3.902 2.34,-5.473 0.39,-1.48 0.63,-2.89 0.63,-4.219 0,-3.75 -6.53,-15.07 -19.54,-33.902 -13.04,-18.867 -19.53,-33.558 -19.53,-44.058 0,-3.989 1.29,-7 3.91,-9.071 2.58,-2.109 6.17,-3.121 10.78,-3.121 7.19,0 16.13,3.594 26.88,10.781 10.82,7.27 26.17,20.313 46.09,39.063 l 0.47,-21.871 c -35,-38.051 -59.38,-62.422 -73.13,-73.129 -13.67,-10.703 -25.27,-16.094 -34.84,-16.094 -7.81,0 -14.38,2.934 -19.69,8.75 -5.31,5.82 -7.97,13.121 -7.97,21.871 0,8.012 3.95,24.461 11.88,49.379 z m 40.78,88.429 c -54.49,-23.429 -89.8,-41.789 -105.94,-55 -16.05,-13.121 -24.06,-27.769 -24.06,-43.898 0,-3.992 0.82,-7.313 2.5,-10 1.64,-2.621 3.75,-3.91 6.25,-3.91 8.32,0 24.38,10.699 48.13,32.187 23.82,21.563 48.2,48.442 73.12,80.621 z" /></g></g></svg>