<?xml version="1.0" encoding="utf-8"?>
<!-- Generator: Adobe Illustrator 24.3.0, SVG Export Plug-In . SVG Version: 6.00 Build 0)  -->
<svg version="1.1" id="Layer_1" xmlns="http://www.w3.org/2000/svg" xmlns:xlink="http://www.w3.org/1999/xlink" x="0px" y="0px"
	 viewBox="0 0 203.9 53.37" style="enable-background:new 0 0 203.9 53.37;" xml:space="preserve">
<style type="text/css">
	.st0{clip-path:url(#SVGID_2_);fill-rule:evenodd;clip-rule:evenodd;fill:#07BACC;}
</style>
<g>
	<defs>
		<rect id="SVGID_1_" x="-81.38" y="0" width="371" height="194"/>
	</defs>
	<clipPath id="SVGID_2_">
		<use xlink:href="#SVGID_1_"  style="display:none;overflow:visible;"/>
	</clipPath>
	<path class="st0" d="M135.5,45.36c-5.3,2.57-10.7,4.28-16.2,5.15c-5.47,0.9-10.87,1.23-16.2,1c-5.33-0.23-10.43-0.77-15.3-1.6
		c-4.87-0.8-9.34-1.63-13.4-2.5c-7.86-1.6-14.78-2.78-20.75-3.55c-6-0.76-11.35-1.07-16.05-0.9c-4.73,0.16-9.17,0.86-13.3,2.1
		c-4.13,1.23-8.3,3.05-12.5,5.45c3.73-1.8,7.75-3.1,12.05-3.9c4.3-0.8,8.71-1.21,13.25-1.25c4.5-0.07,8.91,0.12,13.25,0.55
		c4.33,0.43,8.36,0.98,12.1,1.65c3.77,0.67,7.05,1.32,9.85,1.95c4.13,0.93,8.82,1.79,14.05,2.55c5.27,0.8,10.77,1.24,16.5,1.3
		c5.77,0.07,11.45-0.5,17.05-1.7C125.46,50.46,130.67,48.36,135.5,45.36 M0,42.31c1.9-0.1,3.82-0.25,5.75-0.45
		c1.93-0.17,3.77-0.51,5.5-1.05c1.77-0.53,3.32-1.38,4.65-2.55c1.37-1.3,2.67-3,3.9-5.1c1.26-2.1,2.41-4.32,3.45-6.65
		c1.07-2.33,1.98-4.53,2.75-6.6c0.77-2.03,1.33-3.65,1.7-4.85c0.43-1.46,0.92-2.9,1.45-4.3c0.5-1.36,1.3-2.66,2.4-3.9
		c1.07-1.26,2.7-2.42,4.9-3.45c1.2-0.53,3.37-0.82,6.5-0.85c3.1-0.07,6.84,0.07,11.2,0.4c4.37,0.33,9,0.83,13.9,1.5
		C72.92,5.1,77.7,5.85,82.4,6.71c4.7,0.86,8.95,1.82,12.75,2.85c-3.3-1.16-7.16-2.32-11.6-3.45c-4.43-1.1-9.07-2.1-13.9-3
		c-4.83-0.9-9.48-1.63-13.95-2.2c-4.46-0.54-8.4-0.84-11.8-0.9c-3.4-0.07-5.9,0.2-7.5,0.8c-3,1.23-5.22,2.63-6.65,4.2
		c-1.4,1.57-2.35,3.14-2.85,4.7c-0.5,1.6-0.88,3.03-1.15,4.3c-0.37,1.43-0.93,3.23-1.7,5.4c-0.8,2.16-1.7,4.4-2.7,6.7
		c-1.04,2.3-2.1,4.4-3.2,6.3c-1.1,1.9-2.15,3.32-3.15,4.25c-1.83,1.6-4.07,2.85-6.7,3.75C5.63,41.28,2.87,41.91,0,42.31
		 M161.05,9.36c-3.77-0.04-7.72,0.63-11.85,2c-4.1,1.4-8.23,3.17-12.4,5.3c-4.17,2.16-8.22,4.37-12.15,6.6
		c-3.9,2.23-7.53,4.18-10.9,5.85c-3.37,1.67-6.32,2.7-8.85,3.1c-3.66,0.47-7.55,0.11-11.65-1.05c-4.1-1.2-8.21-2.85-12.35-4.95
		c-4.13-2.1-8.1-4.3-11.9-6.6c-3.8-2.26-7.25-4.3-10.35-6.1c-3.07-1.77-5.57-2.9-7.5-3.4c3.87,0.63,7.7,1.75,11.5,3.35
		c3.8,1.6,7.57,3.36,11.3,5.3c3.7,1.97,7.3,3.84,10.8,5.6c3.54,1.77,6.92,3.15,10.15,4.15c3.27,0.97,6.37,1.29,9.3,0.95
		c2.23-0.37,4.84-1.39,7.8-3.05c2.96-1.67,6.27-3.63,9.9-5.9c3.64-2.27,7.54-4.48,11.7-6.65c4.2-2.17,8.61-3.93,13.25-5.3
		c4.63-1.33,9.45-1.91,14.45-1.75c6.63,0.37,13.57,1.62,20.8,3.75c7.27,2.13,14.53,4.84,21.8,8.1c-4.5-1.57-9.25-3.04-14.25-4.4
		c-4.96-1.36-9.91-2.5-14.85-3.4C169.9,9.99,165.32,9.49,161.05,9.36"/>
</g>
</svg>
